<svg width="235" height="276" viewBox="0 0 235 276" fill="none" xmlns="http://www.w3.org/2000/svg">
<g opacity="0.06" clip-path="url(#clip0_1_224)">
<path d="M194.236 202.655C193.539 201.541 192.39 200.745 191.043 200.508L147.087 192.788C147.891 189.905 148.568 186.9 149.1 183.87C156.542 141.501 135.414 100.906 100.043 83.539C99.0376 74.5875 94.056 66.8215 86.7693 62.8646C88.0682 56.5983 91.42 45.9829 99.2524 42.5994C102.685 41.1202 104.444 37.3144 103.44 33.7173C102.637 30.9488 100.328 28.8575 97.4901 28.3591C96.0473 28.1057 94.5767 28.2936 93.2392 28.8519C90.6124 29.9769 88.215 31.4893 86.0555 33.3409C84.4501 27.8039 81.1934 22.9188 76.7214 19.3075C76.1553 18.861 75.6289 18.4711 75.1421 18.1377C71.4234 15.6007 66.9755 13.8279 61.8862 12.8844L61.8381 12.876C61.3572 12.7915 60.8282 12.6986 60.2426 12.6453C57.5326 12.2685 54.7407 12.0755 52.0111 12.0919C51.5218 12.0555 51.1201 12.0841 50.7666 12.1211L50.6139 12.1439C48.1729 12.2109 46.2058 14.0963 46.0323 16.495L45.968 17.4257C45.8856 20.4353 46.1963 23.4644 46.9736 26.3772C47.1524 27.0531 47.2915 27.6724 47.4956 28.204C48.956 32.8728 51.4231 37.173 54.6986 40.822C55.112 41.2912 55.5734 41.7689 56.1226 42.3115C60.7311 46.8391 66.7615 50.3275 74.0299 52.6949C73.189 55.2242 72.5321 57.8355 72.0278 60.424C63.9563 61.7825 56.7791 67.3633 52.8566 75.3005C13.6848 79.5747 -20.0123 110.54 -27.4541 152.909C-36.3911 203.791 -4.03634 252.158 44.6327 260.706C51.7503 261.957 58.9238 262.324 66.1134 261.753C74.9287 267.168 84.6901 270.866 94.894 272.608C116.535 276.409 138.798 271.594 156.936 259.214C174.879 247.096 188.336 228.34 194.796 206.521C195.129 205.192 194.924 203.817 194.236 202.655ZM177.2 202.836C172.187 219.803 162.061 233.987 148.989 243.49L136.378 227.791C135.45 226.587 133.71 226.331 132.457 227.251C131.253 228.18 130.997 229.919 131.918 231.172C131.957 231.228 132.005 231.237 131.997 231.285L144.33 246.589C130.98 254.853 115.098 258.062 99.5532 255.679L100.294 251.744L101.389 245.789L103.186 235.842C103.448 234.351 102.417 232.881 100.926 232.619C99.4355 232.357 97.9655 233.388 97.7037 234.879L95.0987 249.145L94.0961 254.571C91.7168 254.005 89.3629 253.294 87.0259 252.487C75.9263 248.505 66.2103 241.444 58.9703 232.141L78.5035 217.179C79.7077 216.251 79.9637 214.511 79.035 213.307C78.1063 212.102 76.3665 211.846 75.1623 212.775L55.7506 227.609C46.9488 214.215 42.633 197.295 43.6963 179.387L93.6158 188.155C92.6611 189.921 91.9782 191.833 91.6318 193.805C91.5305 194.382 91.4687 195.016 91.4155 195.601L52.7129 203.131C51.2169 203.463 50.2649 204.932 50.5489 206.419C50.833 207.907 52.3017 208.859 53.7893 208.575L91.8329 201.128C92.5368 204.177 94.0777 206.976 96.1613 209.225L72.0878 237.618C71.0421 238.773 71.1312 240.523 72.2861 241.569C73.441 242.615 75.1918 242.526 76.2374 241.371C76.294 241.331 76.3024 241.283 76.359 241.243L100.562 212.676C103.582 214.396 107.067 215.157 110.521 214.97L116.095 234.887L117.505 239.844L120.089 249.123C120.526 250.587 122.059 251.452 123.524 251.015C124.989 250.578 125.853 249.044 125.417 247.58L122.069 235.589L120.597 230.423L115.894 213.732C118.979 212.539 121.718 210.492 123.716 207.868L133.171 213.594L137.155 216.029L154.044 226.283C155.394 227.066 157.068 226.566 157.85 225.217C158.568 223.955 158.165 222.297 156.968 221.492L139.847 211.148L135.814 208.704L126.359 202.978C127.412 200.09 127.656 197.009 127.201 193.955L177.216 202.74L177.2 202.836ZM96.2402 194.664C96.595 192.644 97.4307 190.709 98.657 189.09L122.318 193.246C122.911 195.234 123.046 197.29 122.643 199.301C122.567 199.734 122.491 200.167 122.366 200.592C120.694 206.445 115.329 210.46 109.244 210.383C108.554 210.361 107.824 210.282 107.151 210.164C105.949 209.953 104.82 209.606 103.725 209.067C102.03 208.273 100.499 207.112 99.3151 205.665C98.0043 204.096 97.0411 202.241 96.4964 200.261C95.9745 198.435 95.9107 196.54 96.2402 194.664ZM80.6001 48.5939C80.8289 48.1383 81.0576 47.6827 81.2948 47.179C81.8173 46.1802 82.3398 45.1813 82.9584 44.1993C84.1477 42.2268 85.617 40.3532 87.1968 38.6972C89.4408 36.3647 92.1463 34.5098 95.1039 33.195C96.5459 32.6055 98.1616 33.2859 98.7595 34.6799C98.9721 35.1634 99.0234 35.7178 98.9305 36.2468C98.77 37.1605 98.1936 37.902 97.3312 38.2959C93.0361 40.169 89.9161 43.5375 87.563 47.3381C86.2269 49.5822 85.0578 52.0043 84.1773 54.4772C83.404 56.6218 82.775 58.7918 82.2818 61.0353C81.433 60.787 80.5758 60.5869 79.7101 60.4348C78.7483 60.2659 77.778 60.1451 76.7908 60.1204C77.2587 58.0212 77.8143 55.9871 78.4661 53.9698C78.9684 52.5212 79.5272 51.0329 80.1342 49.5531C80.2895 49.2334 80.4448 48.9136 80.6001 48.5939ZM59.3472 38.9118C58.8773 38.4823 58.464 38.0131 58.0903 37.6004C55.2197 34.4687 53.1009 30.7254 51.8758 26.6929C51.7113 26.2178 51.5553 25.6947 51.439 25.2281C50.7864 22.7338 50.4958 20.1544 50.5985 17.5945C50.6433 17.057 50.6374 16.8081 50.6374 16.8081C51.0871 16.788 51.4888 16.7594 51.882 16.7789C54.4672 16.7372 57.0102 16.936 59.5675 17.3356C60.0569 17.372 60.5378 17.4564 60.9706 17.5325C65.7233 18.4168 69.5064 20.0232 72.4186 22.0716C72.8572 22.3965 73.3044 22.6733 73.7431 22.9983C78.7896 27.0079 81.167 32.3831 82.192 37.2728C80.6265 39.1296 79.228 41.1644 78.0615 43.2896C77.8328 43.7451 77.5559 44.1923 77.3356 44.5998C76.6747 45.8222 76.1185 47.0135 75.6018 48.2613C68.2373 45.8771 63.0244 42.5323 59.3472 38.9118ZM71.2143 65.3379C73.7567 64.6937 76.3504 64.604 78.8992 65.0517C81.3519 65.4825 83.672 66.3857 85.7634 67.7446C90.3056 70.6742 93.5623 75.5593 94.8454 81.2379C83.287 76.4811 70.8793 74.3018 58.3917 74.835C61.5162 70.0297 66.0816 66.6176 71.2143 65.3379ZM45.3474 256.073C-0.868922 247.955 -31.4397 202.132 -22.9335 153.703C-16.0069 114.268 14.7189 85.2593 50.8466 80.2521C52.5266 80.0018 54.2378 79.8562 55.9489 79.7106C69.5081 78.721 83.07 81.1031 95.4805 86.6541C97.0396 87.3741 98.5987 88.0941 100.093 88.9019C132.352 105.921 151.353 143.664 144.426 183.099C143.894 186.129 143.226 189.085 142.414 192.016L31.514 172.537C28.9651 172.09 26.5339 173.794 26.0862 176.343C26.0525 176.536 26.0187 176.728 26.0414 176.881C24.6936 199.796 30.4815 221.882 42.3412 239.036C47.1129 246.022 52.9672 252.206 59.6495 257.345C54.8014 257.287 50.0604 256.901 45.3474 256.073ZM95.6172 267.926C88.0583 266.648 80.7503 264.225 73.9251 260.745C71.6472 259.602 69.3946 258.314 67.2636 256.898C42.2463 240.705 28.7356 210.371 30.6634 177.098L39.0314 178.567C38.9976 178.76 38.9723 178.904 38.9866 179.105C37.8707 198.442 42.7252 217.092 52.7697 231.597C60.9963 243.75 73.039 252.806 86.9987 257.44C90.3684 258.577 93.7888 259.425 97.2514 260.034C115.574 263.252 134.378 259.217 149.754 248.731C164.896 238.451 176.296 222.656 181.772 204.184C181.805 203.992 181.879 203.856 181.912 203.664L190.281 205.133C177.612 247.625 138.371 275.436 95.6172 267.926Z" fill="white"/>
</g>
<defs>
<clipPath id="clip0_1_224">
<rect width="250" height="250" fill="white" transform="translate(-11.751) rotate(9.96207)"/>
</clipPath>
</defs>
</svg>
