<svg width="40" height="41" viewBox="0 0 40 41" fill="none" xmlns="http://www.w3.org/2000/svg">
<rect x="0.75" y="1.25" width="38.5" height="38.5" rx="19.25" stroke="#212121" stroke-opacity="0.2" stroke-width="1.5"/>
<g clip-path="url(#clip0_9_1540)">
<path d="M15.5 16.17V15.2C15.5 12.95 17.31 10.74 19.56 10.53C22.24 10.27 24.5 12.38 24.5 15.01V16.39" stroke="#212121" stroke-width="1.5" stroke-miterlimit="10" stroke-linecap="round" stroke-linejoin="round"/>
<path d="M17.0001 30.5H23.0001C27.0201 30.5 27.7401 28.89 27.9501 26.93L28.7001 20.93C28.9701 18.49 28.2701 16.5 24.0001 16.5H16.0001C11.7301 16.5 11.0301 18.49 11.3001 20.93L12.0501 26.93C12.2601 28.89 12.9801 30.5 17.0001 30.5Z" stroke="#212121" stroke-width="1.5" stroke-miterlimit="10" stroke-linecap="round" stroke-linejoin="round"/>
<path d="M23.4955 20.5H23.5045" stroke="#212121" stroke-width="2" stroke-linecap="round" stroke-linejoin="round"/>
<path d="M16.4945 20.5H16.5035" stroke="#212121" stroke-width="2" stroke-linecap="round" stroke-linejoin="round"/>
</g>
<defs>
<clipPath id="clip0_9_1540">
<rect width="24" height="24" fill="white" transform="translate(8 8.5)"/>
</clipPath>
</defs>
</svg>
