<svg width="1512" height="1455" viewBox="0 0 1512 1455" fill="none" xmlns="http://www.w3.org/2000/svg">
<path d="M143.753 762.106C17.0873 858.31 -61.7339 981.88 -87.6009 1095.35C-99.7924 1146.3 -103.293 1198.94 -97.9543 1251.04C-94.3367 1290.6 -85.1745 1329.44 -70.737 1366.43C-61.4381 1390.11 -49.7108 1412.76 -35.7425 1434.02C-25.5913 1448.42 -19.7999 1455.43 -18.7253 1454.95C-17.6506 1454.47 -37.7572 1423.42 -57.8128 1362.73C-84.9463 1278.05 -86.617 1187.25 -62.617 1101.61C-35.0158 994.67 44.1889 879.183 167.412 789.695C232.483 742.288 304.473 705.208 380.839 679.763C464.311 651.539 552.553 640.193 640.435 646.385C732.818 653.315 821.823 684.081 898.769 735.682C941.248 763.816 978.485 799.161 1008.8 840.125C973.745 843.435 937.043 846.51 899.208 851.763C853.918 857.335 809.513 868.615 767.048 885.333C722.706 903.242 682.818 930.649 650.188 965.627C616.631 1000.86 591.972 1043.61 578.268 1090.3C564.564 1137 562.211 1186.29 571.405 1234.07C582.664 1287.74 612.351 1335.75 655.311 1369.79C679.551 1388.53 708.24 1400.65 738.57 1404.97C767.583 1408.59 797.031 1406.23 825.099 1398.03C850.483 1390.88 875.077 1381.18 898.502 1369.06C921.552 1357.46 943.674 1344.11 964.673 1329.11C985.565 1314.61 1005.2 1298.37 1023.37 1280.57C1041.7 1262.97 1058.27 1243.62 1072.85 1222.81C1087.52 1202.09 1099.68 1179.7 1109.07 1156.11C1119.15 1132.74 1126.14 1108.15 1129.85 1082.96C1137.38 1032.38 1132.87 980.733 1116.69 932.229C1112.33 918.847 1107.22 905.722 1101.38 892.916C1118.71 890.545 1135.96 887.772 1152.81 884.326C1225.64 869.305 1294.35 838.653 1354.21 794.484C1403.32 758.036 1446.63 714.344 1482.65 664.899C1536.68 589.518 1576.43 504.862 1599.93 415.135C1616.16 355.746 1627.84 295.208 1634.89 234.047C1640.84 185.964 1643.4 149.552 1644.68 122.507C1645.82 101.13 1646.22 84.8827 1646.04 73.0504L1652.61 83.6802C1661.76 97.1001 1672.32 109.51 1684.09 120.703C1703.36 138.963 1724.8 154.778 1747.94 167.789C1786.99 189.465 1813.48 197.252 1817.76 191.703C1822.04 186.155 1802.11 166.943 1771.05 139.343C1753.33 124 1736.64 107.499 1721.1 89.9502C1712.55 80.3053 1704.86 69.9246 1698.13 58.9289L1687.62 40.0552C1685.37 36.2437 1682.99 32.2076 1679.77 27.7637C1675.98 22.4708 1671.53 17.6819 1666.54 13.5124C1660.33 8.40625 1653.08 4.71946 1645.29 2.71038C1637.51 0.701288 1629.38 0.418373 1621.47 1.88105C1617.69 2.63412 1613.98 3.71186 1610.38 5.10219C1606.75 6.63772 1603.21 8.57581 1601.47 9.45567L1591.06 15.896C1578.15 23.9698 1566.04 31.871 1554.69 39.7778C1534.48 53.704 1515.05 68.7472 1496.51 84.8374C1465.29 112.329 1449.51 132.972 1454.33 138.588C1459.15 144.205 1483.73 133.629 1520.47 114.214C1538.93 104.53 1560.26 92.5452 1584.01 79.2841L1606.15 67.1276C1603.12 78.8913 1600.31 94.8982 1596.71 116.971C1592.39 143.994 1586.5 179.353 1578.72 226.396C1569.09 284.773 1555.9 342.508 1539.23 399.28C1515.62 482.181 1477.58 560.273 1426.88 629.972C1394.02 674.167 1354.8 713.248 1310.5 745.941C1258.26 784.386 1198.29 811.009 1134.76 823.965C1113.21 828.671 1090.79 831.629 1067.43 834.535C1030.31 779.497 982.345 732.635 926.467 696.824C841.03 641.105 742.585 608.557 640.777 602.367C546.558 597.041 452.221 610.637 363.325 642.353C283.855 670.639 209.288 711.177 142.322 762.498L143.753 762.106ZM1062.68 946.425C1075.94 987.785 1079.25 1031.7 1072.35 1074.58C1069.08 1095.67 1063.01 1116.23 1054.3 1135.7C1045.7 1155.64 1034.83 1174.53 1021.91 1191.98C1009.09 1209.9 994.556 1226.52 978.514 1241.62C962.273 1257.18 944.76 1271.36 926.157 1284C907.479 1296.86 887.833 1308.25 867.395 1318.07C847.485 1328.2 826.614 1336.31 805.095 1342.29C786.501 1348.66 766.633 1350.38 747.226 1347.29C727.82 1344.21 709.466 1336.41 693.768 1324.59C662.91 1299.12 641.769 1263.78 633.904 1224.54C629.666 1205.49 628.314 1185.92 629.891 1166.47C631.157 1146.76 634.906 1127.28 641.049 1108.51C653.05 1071.38 673.08 1037.35 699.715 1008.83C726.351 980.318 758.936 958.024 795.155 943.537C832.404 929.27 871.262 919.635 910.857 914.845C954.989 908.745 999.857 905.686 1044.24 901.553C1051.38 916.25 1057.49 931.421 1062.54 946.959" fill="#E31E27"/>
</svg>
