<svg width="1512" height="899" viewBox="0 0 1512 899" fill="none" xmlns="http://www.w3.org/2000/svg">
<path fill-rule="evenodd" clip-rule="evenodd" d="M1195.01 839.275C1274.05 825.51 1355.02 809.366 1429.09 779.837C1552.64 730.644 1640.12 651.351 1708.02 574.189C1805.09 463.715 1876.48 345.836 1873.94 238.485C1871.4 131.133 1785.05 36.1656 1624.15 9.50204C1486.15 -13.3926 1316.23 14.6529 1156.71 28.1973C768.271 61.2112 418.064 7.19557 35.822 22.7799C-94.8533 28.1182 -233.714 42.572 -363.469 87.3107C-939.706 285.748 -714.025 638.014 -407.827 743.888C44.6901 900.429 569.423 948.113 1195.12 839.244L1195.01 839.275Z" fill="#F8F2DE"/>
</svg>
