<svg width="151" height="141" viewBox="0 0 151 141" fill="none" xmlns="http://www.w3.org/2000/svg">
<path d="M146.802 6.36508C147.494 11.4151 147.721 16.5163 147.479 21.6037C147.152 29.241 145.673 36.7788 143.091 43.9604C141.593 48.186 139.305 52.0834 136.351 55.4448C133.094 58.9273 128.902 61.3906 124.276 62.5402C119.413 63.7431 114.335 63.8195 109.426 62.7637C104.419 61.6321 99.6226 59.7009 95.2196 57.0441C90.7132 54.2457 86.3618 51.2023 82.185 47.9278C77.6036 44.2507 72.2572 41.6574 66.5462 40.3423C60.3226 39.3059 53.9423 40.3902 48.4243 43.4222C45.7951 44.7807 43.3327 46.4403 41.086 48.368C38.9326 50.1656 36.9262 52.1335 35.0862 54.2527C31.6962 58.1916 28.7713 62.511 26.3693 67.1258C24.2869 71.2228 22.4599 75.4463 20.8986 79.7722C16.5713 91.7764 14.6045 104.518 15.1066 117.295C15.2853 121.44 15.784 125.566 16.5981 129.637C15.5955 128.314 14.6346 127.032 13.7078 125.815C11.4013 122.871 9.21427 120.155 7.34133 117.959C3.58778 113.593 0.938724 111.099 0.317335 111.528C-0.304053 111.957 1.19852 115.219 4.14573 120.174C5.60696 122.647 7.44534 125.525 9.53541 128.686C10.5834 130.214 11.7168 131.904 12.8834 133.618C13.4663 134.454 14.0662 135.324 14.6824 136.184L15.6194 137.5L16.1092 138.198C16.3995 138.587 16.7166 138.955 17.0581 139.3C17.7919 140.062 18.7408 140.58 19.7757 140.783C20.8175 140.952 21.8843 140.772 22.811 140.272C23.7476 139.745 24.5191 138.967 25.0397 138.024C25.2812 137.612 25.499 137.186 25.6921 136.748L26.0046 136.044C26.8477 134.108 27.7173 132.261 28.5895 130.537C30.2836 127.033 31.9276 123.867 33.2461 121.183C35.9326 115.83 37.3896 112.347 36.7115 112.037C36.0335 111.728 33.4811 114.54 29.9111 119.546C28.1465 122.049 26.1315 125.098 24.1271 128.64C23.4711 129.752 22.8578 130.945 22.2283 132.147C21.6198 127.065 21.2786 121.956 21.2059 116.84C21.1292 104.811 23.1355 92.8702 27.1354 81.5496C28.6125 77.4997 30.3217 73.5398 32.2545 69.6897C34.3641 65.5295 36.9493 61.6316 39.9582 58.0742C41.5409 56.2191 43.2644 54.4899 45.1134 52.902C46.9779 51.2916 49.0129 49.891 51.1824 48.7251C55.3743 46.3263 60.2547 45.4142 65.0401 46.1354C69.9334 47.2342 74.5276 49.4081 78.491 52.5004C82.8591 55.8148 87.4169 58.8692 92.1405 61.6475C97.0898 64.4871 102.462 66.5036 108.048 67.6181C113.771 68.7101 119.661 68.4655 125.262 66.9032C130.76 65.3885 135.689 62.2932 139.444 57.9978C142.647 54.1656 145.068 49.7369 146.568 44.9623C148.983 37.4003 150.151 29.4878 150.024 21.5366C150.003 16.3326 149.365 11.1466 148.122 6.0883C147.204 2.5623 146.404 0.7598 146.226 0.853158C146.048 0.946516 146.334 2.87261 146.828 6.455" fill="#E31E27"/>
</svg>
