<svg width="89" height="122" viewBox="0 0 89 122" fill="none" xmlns="http://www.w3.org/2000/svg">
<g opacity="0.2">
<path d="M75.5 122C60.5675 122 45.9704 117.572 33.5545 109.276C21.1386 100.98 11.4615 89.1884 5.74712 75.3926C0.0327071 61.5968 -1.46244 46.4163 1.45075 31.7707C4.36393 17.1251 11.5546 3.67233 22.1135 -6.88653C32.6723 -17.4454 46.1252 -24.6361 60.7707 -27.5493C75.4163 -30.4624 90.5968 -28.9673 104.393 -23.2529C118.188 -17.5385 129.98 -7.86144 138.276 4.55447C146.572 16.9704 151 31.5675 151 46.5C151 66.5239 143.046 85.7276 128.887 99.8866C114.728 114.046 95.5239 122 75.5 122ZM75.5 -27.0131C60.9605 -27.0131 46.7475 -22.7017 34.6583 -14.6239C22.5691 -6.5462 13.1468 4.93499 7.58274 18.3678C2.01871 31.8005 0.562899 46.5816 3.39942 60.8417C6.23594 75.1019 13.2374 88.2007 23.5184 98.4817C33.7994 108.763 46.8982 115.764 61.1583 118.601C75.4185 121.437 90.1995 119.981 103.632 114.417C117.065 108.853 128.546 99.4309 136.624 87.3417C144.702 75.2526 149.013 61.0395 149.013 46.5C148.987 27.0203 141.23 8.3475 127.447 -5.41741C113.663 -19.1823 94.9797 -26.9138 75.5 -26.9138V-27.0131Z" fill="#E31E27"/>
<path d="M76.3742 42.9237C73.6721 42.9237 71.3276 39.5262 69.4203 32.8107L55.0355 -12.0323C54.6393 -13.0207 54.4625 -14.0834 54.5173 -15.1469C54.5722 -16.2103 54.8575 -17.2492 55.3534 -18.1915C55.8489 -19.1719 56.5545 -20.031 57.4199 -20.7075C58.2853 -21.3841 59.2893 -21.8614 60.3603 -22.1056C70.8482 -24.7284 81.8207 -24.7284 92.3087 -22.1056C93.3639 -21.8686 94.3546 -21.4042 95.2117 -20.7447C96.0688 -20.0852 96.7716 -19.2465 97.2711 -18.2873C97.7706 -17.3281 98.0547 -16.2714 98.1035 -15.1911C98.1524 -14.1107 97.9648 -13.0327 97.5539 -12.0323L83.1891 32.8703C81.3811 39.5262 79.0962 42.9237 76.3941 42.9436L76.3742 42.9237ZM75.6589 -22.1056C70.6425 -21.9672 65.6546 -21.3013 60.7775 -20.1188C60.0018 -19.9509 59.2723 -19.6147 58.6406 -19.1341C58.0089 -18.6535 57.4904 -18.0401 57.1217 -17.3372C56.7584 -16.6361 56.5508 -15.8649 56.5131 -15.0762C56.4754 -14.2875 56.6084 -13.5 56.9032 -12.7675L71.3276 32.2743C73.1555 38.6917 75.1225 40.9766 76.3742 40.9766C77.6259 40.9766 79.5531 38.6917 81.3016 32.314L95.6863 -12.688C96.0001 -13.4226 96.1478 -14.2175 96.1188 -15.0158C96.0898 -15.8142 95.8847 -16.5962 95.5184 -17.3061C95.152 -18.016 94.6334 -18.6363 93.9996 -19.1225C93.3657 -19.6087 92.6323 -19.9489 91.8517 -20.1188C86.787 -21.4141 81.5821 -22.0814 76.3543 -22.1056H75.6589Z" fill="#E31E27"/>
<path d="M69.0823 45.3874C66.0923 45.1748 63.168 44.4066 60.4595 43.1224L16.3714 26.3534C15.3502 26.0457 14.4076 25.5205 13.6085 24.814C12.8094 24.1075 12.1727 23.2364 11.7421 22.2605C11.3094 21.2705 11.096 20.1985 11.1166 19.1182C11.1372 18.0379 11.3912 16.9749 11.8613 16.002C16.3303 6.16488 23.1542 -2.41961 31.7297 -8.99248C32.5707 -9.6711 33.5496 -10.1581 34.5981 -10.4196C35.6467 -10.6811 36.7396 -10.7107 37.8008 -10.5064C38.862 -10.3021 39.8658 -9.86883 40.7423 -9.23676C41.6188 -8.60469 42.347 -7.78904 42.8759 -6.84669L69.0227 32.3736C73.0958 37.9566 74.3276 41.8707 72.6587 43.9966C72.2085 44.4864 71.6521 44.8664 71.0321 45.1075C70.4121 45.3486 69.7451 45.4444 69.0823 45.3874ZM36.518 -8.65472C35.2733 -8.65633 34.0662 -8.22823 33.1006 -7.44274C28.9558 -4.26646 25.207 -0.604359 21.9346 3.46503C18.6909 7.56037 15.9494 12.0295 13.7687 16.7769C13.4345 17.4957 13.2614 18.2789 13.2614 19.0717C13.2614 19.8644 13.4345 20.6476 13.7687 21.3665C14.0826 22.0892 14.5513 22.7343 15.1418 23.2562C15.7323 23.778 16.4301 24.1638 17.186 24.3865L61.3933 41.1951C67.5724 43.778 70.5924 43.6588 71.3275 42.6853C72.0626 41.7117 71.5262 38.7116 67.632 33.4266L41.4057 -5.89301C41.0188 -6.59328 40.4844 -7.20114 39.8394 -7.67455C39.1945 -8.14796 38.4544 -8.47561 37.6704 -8.63485C37.2878 -8.67807 36.9019 -8.68472 36.518 -8.65472Z" fill="#E31E27"/>
<path d="M18.1596 81.8856C17.4899 81.8902 16.8223 81.8101 16.1727 81.6472C15.1281 81.3743 14.1553 80.8775 13.3217 80.1914C12.488 79.5053 11.8135 78.6462 11.3447 77.6735C6.45999 68.0283 4.02401 57.3291 4.25167 46.5199C4.24682 45.4421 4.47651 44.3761 4.92476 43.396C5.37302 42.4158 6.02912 41.5449 6.84758 40.8436C7.66604 40.1424 8.62725 39.6275 9.66455 39.3349C10.7019 39.0422 11.7904 38.9787 12.8547 39.1487L59.8236 43.1224C66.7378 43.4005 70.5526 44.8907 71.1685 47.5133C71.7844 50.1359 69.0028 53.1957 62.8635 56.5733L22.2525 80.5743C21.0515 81.4138 19.6248 81.8709 18.1596 81.8856ZM11.7421 41.0163C10.4511 41.0011 9.19962 41.4607 8.22535 42.3078C7.60309 42.8102 7.10156 43.446 6.75769 44.1681C6.41382 44.8902 6.23639 45.6803 6.23851 46.4801C6.13162 51.7036 6.65869 56.9207 7.80814 62.0172C8.98843 67.1008 10.7762 72.0238 13.1329 76.6801C13.4717 77.384 13.9585 78.0064 14.5601 78.5047C15.1617 79.003 15.8639 79.3655 16.6185 79.5674C17.3732 79.7693 18.1626 79.8058 18.9326 79.6744C19.7027 79.5429 20.4352 79.2468 21.0802 78.806L61.7906 54.7454C67.6518 51.5267 69.4201 49.0829 69.1419 47.8709C68.8638 46.659 66.2014 45.288 59.6051 45.0099L12.5169 41.0362C12.2595 41.0101 12.0005 41.0034 11.7421 41.0163Z" fill="#E31E27"/>
<path d="M61.0558 116.616C60.4869 116.618 59.9198 116.551 59.367 116.417C54.097 115.304 48.9758 113.577 44.108 111.271C39.2664 108.913 34.724 105.985 30.5776 102.549C29.7256 101.885 29.0296 101.042 28.5385 100.079C28.0475 99.117 27.7734 98.0587 27.7355 96.9791C27.6976 95.8994 27.8969 94.8245 28.3193 93.8302C28.7416 92.8358 29.3769 91.9461 30.1802 91.2238L62.6055 56.9905C67.1157 51.785 70.6721 49.6988 73.1159 50.8711C75.5597 52.0433 76.1955 56.1163 75.1027 62.9908L68.5462 109.721C68.4786 110.787 68.1786 111.824 67.6672 112.761C67.1557 113.699 66.4453 114.512 65.5858 115.145C64.2773 116.118 62.686 116.634 61.0558 116.616ZM71.6854 52.54C70.3343 52.54 67.7117 54.0301 64.0758 58.3217L31.571 92.6345C30.9709 93.1612 30.4941 93.8135 30.1742 94.5451C29.8544 95.2768 29.6994 96.0698 29.7203 96.868C29.7411 97.6662 29.9373 98.45 30.2949 99.1639C30.6525 99.8779 31.1628 100.504 31.7896 100.999C35.8211 104.319 40.2291 107.153 44.9226 109.443H45.022C49.7351 111.683 54.697 113.357 59.8041 114.43C60.5758 114.614 61.3786 114.627 62.1558 114.468C62.9331 114.308 63.6658 113.98 64.3024 113.506C64.939 113.033 65.4639 112.425 65.8401 111.726C66.2163 111.028 66.4347 110.255 66.4799 109.463L73.0364 62.6332C74.1888 56.0368 73.3742 53.136 72.2616 52.6989C72.0846 52.6016 71.8872 52.5472 71.6854 52.54Z" fill="#E31E27"/>
<path d="M89.0702 117.112C87.1823 117.102 85.3686 116.376 83.9937 115.082C82.6188 113.789 81.7848 112.022 81.6593 110.139L75.1225 63.4677C73.8708 56.6727 74.447 52.5997 76.871 51.4274C79.2949 50.2552 82.8315 52.2818 87.5403 57.5071L119.966 91.8398C120.75 92.558 121.37 93.438 121.782 94.4191C122.193 95.4001 122.387 96.4589 122.35 97.5221C122.311 98.6063 122.037 99.6692 121.547 100.637C121.056 101.604 120.361 102.453 119.509 103.125C115.371 106.568 110.827 109.491 105.978 111.827C101.118 114.156 95.9946 115.89 90.7193 116.993C90.175 117.089 89.6225 117.129 89.0702 117.112ZM78.3412 53.0765C78.136 53.0697 77.932 53.1105 77.7452 53.1957C76.6325 53.752 75.8775 56.6528 77.0895 63.1299L83.6461 109.92C83.6854 110.719 83.8997 111.5 84.2739 112.207C84.6481 112.914 85.1731 113.531 85.8118 114.013C86.4477 114.492 87.182 114.825 87.9619 114.986C88.7418 115.148 89.5479 115.134 90.3219 114.947C95.4333 113.89 100.397 112.216 105.104 109.96C109.795 107.668 114.197 104.827 118.217 101.496C118.841 101.011 119.352 100.395 119.712 99.6908C120.072 98.9871 120.273 98.2129 120.302 97.4229C120.33 96.6328 120.185 95.8462 119.876 95.1184C119.568 94.3906 119.103 93.7394 118.515 93.2107L86.1893 58.9377C82.2156 54.6461 79.7122 53.156 78.3412 53.156V53.0765Z" fill="#E31E27"/>
<path d="M132.88 83.1771C131.358 83.1716 129.874 82.7001 128.628 81.826L88.0371 57.825C81.9574 54.5864 79.1361 51.5863 79.7321 48.9438C80.3282 46.3013 84.1628 44.7714 91.1366 44.4138L138.145 40.4401C139.206 40.2726 140.291 40.3383 141.324 40.6327C142.357 40.9271 143.313 41.443 144.126 42.1447C144.939 42.8463 145.59 43.7167 146.032 44.6953C146.475 45.674 146.699 46.7373 146.689 47.8113C146.916 58.6205 144.48 69.3197 139.596 78.965C139.128 79.9384 138.454 80.7981 137.62 81.4844C136.786 82.1706 135.813 82.6669 134.768 82.9387C134.152 83.104 133.517 83.1842 132.88 83.1771ZM139.278 42.2879C138.987 42.2593 138.694 42.2593 138.404 42.2879L91.2757 46.2615C84.5999 46.6192 81.9375 48.0497 81.6594 49.2617C81.3812 50.4737 83.1892 52.8777 89.0107 55.9772L129.701 80.1571C130.347 80.6244 131.089 80.9434 131.872 81.0915C132.656 81.2396 133.462 81.2131 134.235 81.0139C135.007 80.8147 135.725 80.4477 136.34 79.939C136.954 79.4303 137.448 78.7925 137.788 78.0709C140.147 73.4086 141.934 68.4787 143.112 63.3881C144.266 58.2922 144.793 53.0746 144.682 47.851C144.681 47.0517 144.503 46.2625 144.159 45.5408C143.815 44.8191 143.315 44.183 142.695 43.6787C141.753 42.8314 140.544 42.3395 139.278 42.2879Z" fill="#E31E27"/>
<path d="M83.0503 46.5C82.395 46.5593 81.7349 46.4664 81.1215 46.2286C80.508 45.9908 79.9578 45.6145 79.5137 45.1291C77.805 43.023 78.9971 39.1686 83.0701 33.3868L109.237 -5.87315C109.764 -6.8007 110.487 -7.60264 111.355 -8.22354C112.223 -8.84444 113.215 -9.26949 114.264 -9.46933C115.326 -9.67411 116.42 -9.64512 117.47 -9.38435C118.52 -9.12359 119.5 -8.63731 120.343 -7.95933C124.631 -4.68249 128.506 -0.899985 131.887 3.30606C135.243 7.51513 138.073 12.1191 140.311 17.0153C140.786 17.9861 141.043 19.0488 141.065 20.1294C141.087 21.2099 140.873 22.2822 140.438 23.2715C140.003 24.2608 139.357 25.1433 138.546 25.8575C137.735 26.5716 136.778 27.1002 135.741 27.4064L91.6731 44.1754C88.975 45.4975 86.0473 46.2868 83.0503 46.5ZM115.674 -7.62157C115.33 -7.65098 114.985 -7.65098 114.641 -7.62157C113.865 -7.4752 113.131 -7.15877 112.492 -6.69499C111.853 -6.23122 111.325 -5.63163 110.946 -4.93933L84.6993 34.4001C80.825 39.8441 80.2687 42.8243 81.0634 43.778C81.8581 44.7317 84.8185 44.8509 90.9976 42.2283L135.066 25.519C135.831 25.2999 136.54 24.9162 137.142 24.3946C137.744 23.873 138.224 23.2261 138.55 22.4993C138.875 21.7725 139.038 20.9833 139.026 20.187C139.015 19.3908 138.83 18.6066 138.483 17.8895C136.302 13.1421 133.561 8.67298 130.317 4.57764C127.045 0.508254 123.296 -3.15383 119.151 -6.33012C118.181 -7.1573 116.949 -7.61474 115.674 -7.62157Z" fill="#E31E27"/>
</g>
</svg>
