<svg width="40" height="41" viewBox="0 0 40 41" fill="none" xmlns="http://www.w3.org/2000/svg">
<rect x="0.75" y="1.25" width="38.5" height="38.5" rx="19.25" stroke="white" stroke-opacity="0.2" stroke-width="1.5"/>
<g clip-path="url(#clip0_1_317)">
<path d="M15.5 16.17V15.2C15.5 12.95 17.31 10.74 19.56 10.53C22.24 10.27 24.5 12.38 24.5 15.01V16.39" stroke="white" stroke-width="1.5" stroke-miterlimit="10" stroke-linecap="round" stroke-linejoin="round"/>
<path d="M16.9999 30.5H22.9999C27.0199 30.5 27.7399 28.89 27.9499 26.93L28.6999 20.93C28.9699 18.49 28.2699 16.5 23.9999 16.5H15.9999C11.7299 16.5 11.0299 18.49 11.2999 20.93L12.0499 26.93C12.2599 28.89 12.9799 30.5 16.9999 30.5Z" stroke="white" stroke-width="1.5" stroke-miterlimit="10" stroke-linecap="round" stroke-linejoin="round"/>
<path d="M23.4955 20.5H23.5045" stroke="white" stroke-width="2" stroke-linecap="round" stroke-linejoin="round"/>
<path d="M16.4945 20.5H16.5035" stroke="white" stroke-width="2" stroke-linecap="round" stroke-linejoin="round"/>
</g>
<defs>
<clipPath id="clip0_1_317">
<rect width="24" height="24" fill="white" transform="translate(8 8.5)"/>
</clipPath>
</defs>
</svg>
