<svg width="104" height="208" viewBox="0 0 104 208" fill="none" xmlns="http://www.w3.org/2000/svg">
<g opacity="0.2">
<path d="M1.52588e-05 208C-20.5692 208 -40.6766 201.901 -57.7793 190.473C-74.882 179.045 -88.2119 162.803 -96.0834 143.799C-103.955 124.796 -106.014 103.885 -102.002 83.7106C-97.9888 63.5366 -88.0837 45.0056 -73.5391 30.4609C-58.9944 15.9163 -40.4634 6.01124 -20.2893 1.99838C-0.115326 -2.01448 20.7956 0.0450613 39.7991 7.91657C58.8026 15.7881 75.0452 29.118 86.4729 46.2207C97.9005 63.3234 104 83.4308 104 104C104 131.583 93.0429 158.035 73.5391 177.539C54.0353 197.043 27.5825 208 1.52588e-05 208ZM1.52588e-05 2.73689C-20.0279 2.73689 -39.6061 8.67587 -56.2588 19.8028C-72.9114 30.9297 -85.8905 46.7449 -93.5549 65.2483C-101.219 83.7517 -103.225 104.112 -99.3174 123.755C-95.4101 143.399 -85.7657 161.442 -71.6038 175.604C-57.4419 189.766 -39.3986 199.41 -19.7554 203.317C-0.112312 207.225 20.2483 205.219 38.7517 197.555C57.2552 189.891 73.0703 176.911 84.1972 160.259C95.3242 143.606 101.263 124.028 101.263 104C101.227 77.1671 90.5421 51.4456 71.5555 32.4846C52.569 13.5237 26.833 2.8737 1.52588e-05 2.87373V2.73689Z" fill="#E31E27"/>
<path d="M1.20443 99.0737C-2.51768 99.0737 -5.74715 94.3937 -8.37452 85.1431L-28.1892 23.3726C-28.7351 22.0111 -28.9787 20.5473 -28.903 19.0824C-28.8274 17.6175 -28.4345 16.1865 -27.7514 14.8884C-27.0689 13.5379 -26.097 12.3546 -24.9049 11.4227C-23.7128 10.4907 -22.3298 9.83319 -20.8545 9.49683C-6.40749 5.88395 8.70689 5.88395 23.1539 9.49683C24.6074 9.82328 25.9721 10.4631 27.1528 11.3715C28.3334 12.2799 29.3016 13.4351 29.9896 14.7565C30.6776 16.0778 31.0689 17.5333 31.1362 19.0215C31.2035 20.5097 30.9451 21.9946 30.3792 23.3726L10.5918 85.2252C8.10129 94.3937 4.95393 99.0737 1.23182 99.101L1.20443 99.0737ZM0.219164 9.49683C-6.69091 9.68748 -13.5617 10.6048 -20.2798 12.2337C-21.3484 12.465 -22.3532 12.928 -23.2233 13.59C-24.0934 14.2521 -24.8077 15.097 -25.3156 16.0653C-25.816 17.031 -26.1019 18.0933 -26.1539 19.1797C-26.2058 20.2661 -26.0226 21.3509 -25.6166 22.36L-5.74713 84.4042C-3.22924 93.2442 -0.519783 96.3915 1.20443 96.3915C2.92864 96.3915 5.58336 93.2442 7.99178 84.4589L27.8065 22.4695C28.2388 21.4575 28.4422 20.3626 28.4023 19.2629C28.3623 18.1632 28.0799 17.0859 27.5752 16.108C27.0706 15.1302 26.3562 14.2758 25.4831 13.606C24.61 12.9363 23.5997 12.4677 22.5245 12.2337C15.5478 10.4494 8.37817 9.53021 1.17707 9.49683H0.219164Z" fill="#E31E27"/>
<path d="M-19.8966 200.583C-20.6803 200.587 -21.4615 200.495 -22.223 200.309C-29.4822 198.776 -36.5366 196.397 -43.2419 193.221C-49.9112 189.973 -56.1683 185.94 -61.8798 181.206C-63.0534 180.291 -64.0122 179.13 -64.6886 177.805C-65.365 176.479 -65.7426 175.021 -65.7948 173.534C-65.8469 172.047 -65.5725 170.566 -64.9907 169.196C-64.4088 167.827 -63.5338 166.601 -62.4272 165.606L-17.7619 118.45C-11.5493 111.28 -6.65033 108.406 -3.28402 110.021C0.0822983 111.636 0.958084 117.246 -0.54718 126.716L-9.57876 191.086C-9.67181 192.554 -10.0851 193.983 -10.7896 195.274C-11.4941 196.565 -12.4727 197.686 -13.6566 198.558C-15.459 199.897 -17.6511 200.609 -19.8966 200.583ZM-5.25455 112.32C-7.1156 112.32 -10.7282 114.373 -15.7367 120.284L-60.5114 167.549C-61.338 168.275 -61.9949 169.174 -62.4354 170.181C-62.876 171.189 -63.0895 172.282 -63.0608 173.381C-63.032 174.481 -62.7618 175.56 -62.2692 176.544C-61.7766 177.527 -61.0737 178.39 -60.2103 179.072C-54.6569 183.644 -48.5851 187.548 -42.1198 190.703H-41.983C-35.4907 193.789 -28.6557 196.095 -21.6208 197.573C-20.5578 197.827 -19.452 197.844 -18.3813 197.624C-17.3107 197.404 -16.3013 196.952 -15.4244 196.3C-14.5476 195.647 -13.8245 194.811 -13.3063 193.848C-12.7881 192.886 -12.4872 191.822 -12.4251 190.73L-3.39347 126.223C-1.80611 117.137 -2.92821 113.141 -4.46084 112.539C-4.70464 112.405 -4.97651 112.33 -5.25455 112.32Z" fill="#E31E27"/>
<path d="M18.6925 201.267C16.092 201.252 13.5936 200.253 11.6998 198.471C9.80588 196.689 8.65699 194.256 8.48412 191.661L-0.520108 127.373C-2.24432 118.013 -1.45062 112.402 1.88833 110.787C5.22727 109.173 10.0988 111.964 16.5852 119.162L61.2504 166.455C62.3317 167.444 63.1853 168.656 63.7523 170.008C64.3193 171.359 64.5862 172.818 64.5346 174.282C64.4818 175.776 64.1043 177.24 63.4285 178.572C62.7526 179.905 61.7946 181.075 60.621 182C54.922 186.743 48.6626 190.769 41.9831 193.987C35.288 197.195 28.2308 199.584 20.9641 201.103C20.2144 201.235 19.4533 201.29 18.6925 201.267ZM3.9136 113.059C3.63092 113.05 3.3499 113.106 3.09254 113.223C1.55991 113.99 0.519907 117.985 2.18938 126.907L11.221 191.36C11.2751 192.461 11.5703 193.536 12.0858 194.511C12.6012 195.485 13.3244 196.334 14.2041 196.998C15.0801 197.658 16.0917 198.116 17.166 198.339C18.2403 198.561 19.3505 198.543 20.4168 198.284C27.4577 196.829 34.2953 194.522 40.7789 191.415C47.2406 188.258 53.3042 184.344 58.842 179.756C59.7019 179.088 60.4047 178.239 60.9008 177.27C61.397 176.3 61.6744 175.234 61.7136 174.145C61.7527 173.057 61.5526 171.974 61.1274 170.971C60.7022 169.968 60.0622 169.071 59.2525 168.343L14.7241 121.133C9.25044 115.221 5.80202 113.168 3.9136 113.168V113.059Z" fill="#E31E27"/>
<path d="M79.0402 154.522C76.9437 154.514 74.8998 153.865 73.1834 152.661L17.2697 119.6C8.89496 115.139 5.00867 111.006 5.82972 107.366C6.65077 103.726 11.9329 101.619 21.5392 101.126L86.2928 95.6526C87.7542 95.4219 89.2483 95.5124 90.6711 95.9179C92.094 96.3234 93.4114 97.0341 94.5315 98.0006C95.6517 98.9671 96.5478 100.166 97.1574 101.514C97.767 102.862 98.0754 104.327 98.0613 105.806C98.3749 120.696 95.0194 135.434 88.2908 148.72C87.6466 150.061 86.7179 151.245 85.5693 152.19C84.4207 153.136 83.0799 153.819 81.6402 154.194C80.7926 154.421 79.9178 154.532 79.0402 154.522ZM87.8529 98.1978C87.4524 98.1585 87.0491 98.1585 86.6487 98.1978L21.7308 103.672C12.535 104.164 8.86762 106.135 8.48446 107.804C8.1013 109.474 10.5918 112.785 18.6108 117.055L74.6613 150.362C75.5514 151.006 76.5725 151.445 77.6518 151.649C78.7312 151.853 79.8423 151.817 80.9059 151.542C81.9696 151.268 82.9597 150.762 83.8056 150.062C84.6516 149.361 85.3326 148.482 85.8002 147.488C89.0495 141.066 91.5122 134.275 93.1349 127.263C94.7236 120.244 95.4497 113.056 95.2971 105.861C95.2961 104.76 95.05 103.673 94.5766 102.679C94.1032 101.685 93.4144 100.808 92.5602 100.114C91.2619 98.9466 89.5972 98.269 87.8529 98.1978Z" fill="#E31E27"/>
<path d="M10.4001 104C9.49753 104.082 8.58828 103.954 7.74326 103.626C6.89824 103.299 6.1403 102.78 5.52855 102.112C3.17487 99.2105 4.81696 93.901 10.4275 85.9368L46.4717 31.8568C47.1985 30.5791 48.1941 29.4745 49.3896 28.6192C50.5851 27.7639 51.952 27.1784 53.3959 26.9031C54.8592 26.6211 56.3663 26.661 57.8125 27.0202C59.2588 27.3794 60.6094 28.0492 61.7707 28.9831C67.6763 33.4969 73.0152 38.7073 77.6717 44.501C82.2955 50.299 86.1925 56.6408 89.2759 63.3853C89.93 64.7226 90.2845 66.1865 90.3147 67.6749C90.3449 69.1633 90.0501 70.6404 89.4508 72.0031C88.8515 73.3659 87.9622 74.5815 86.8448 75.5652C85.7274 76.549 84.4089 77.2771 82.9812 77.6989L22.278 100.798C18.5614 102.619 14.5285 103.706 10.4001 104ZM55.3391 29.4484C54.8655 29.4079 54.3895 29.4079 53.9159 29.4484C52.8472 29.65 51.8364 30.0859 50.9562 30.7247C50.076 31.3636 49.3483 32.1895 48.8254 33.1431L12.6717 87.3326C7.33487 94.8316 6.56855 98.9368 7.66329 100.25C8.75802 101.564 12.8359 101.728 21.3475 98.1158L82.0507 75.0989C83.1054 74.7972 84.0814 74.2686 84.9103 73.5501C85.7393 72.8316 86.4011 71.9406 86.8496 70.9394C87.298 69.9383 87.5222 68.8512 87.5063 67.7543C87.4905 66.6574 87.2351 65.5773 86.758 64.5894C83.7541 58.05 79.9777 51.8939 75.5096 46.2526C71.0019 40.6471 65.838 35.6026 60.1285 31.2274C58.7919 30.0879 57.0954 29.4578 55.3391 29.4484Z" fill="#E31E27"/>
</g>
</svg>
