<svg width="13" height="18" viewBox="0 0 13 18" fill="none" xmlns="http://www.w3.org/2000/svg">
<path d="M2.37782 0.396631L3.36663 0.0992234C3.90831 -0.0641189 4.49092 -0.024798 5.00574 0.209849C5.52056 0.444495 5.93242 0.858437 6.16447 1.37443L6.92875 3.07415C7.12826 3.51797 7.18382 4.01312 7.08763 4.49013C6.99144 4.96713 6.74832 5.40205 6.3924 5.73387L5.12651 6.91418C5.0895 6.94866 5.06606 6.99525 5.06042 7.04552C5.02313 7.3819 5.25106 8.03687 5.7764 8.94774C6.15854 9.60949 6.50509 10.0747 6.79911 10.3348C7.00416 10.517 7.11685 10.5559 7.16515 10.5424L8.86825 10.0213C9.33335 9.87902 9.83131 9.88587 10.2923 10.0409C10.7533 10.1958 11.1543 10.4912 11.439 10.8855L12.5244 12.3904C12.8545 12.848 13.0073 13.4099 12.9545 13.9716C12.9016 14.5334 12.6468 15.0569 12.2372 15.445L11.4865 16.1567C11.088 16.534 10.5987 16.8017 10.066 16.9337C9.5334 17.0657 8.97566 17.0575 8.44714 16.91C6.11363 16.2584 4.02161 14.2892 2.14735 11.0431C0.270542 7.79285 -0.387822 4.99332 0.218856 2.64371C0.355422 2.11527 0.62581 1.63092 1.00396 1.23734C1.3821 0.843755 1.85526 0.554218 2.37782 0.396631ZM2.7447 1.61422C2.43126 1.70866 2.14741 1.88222 1.9205 2.11818C1.69359 2.35414 1.53127 2.64456 1.44916 2.96146C0.939074 4.93739 1.52287 7.41918 3.24801 10.4077C4.9706 13.3919 6.82537 15.1374 8.78945 15.6864C9.10646 15.7747 9.44093 15.7795 9.76031 15.7002C10.0797 15.6209 10.3731 15.4603 10.612 15.234L11.3636 14.5222C11.5498 14.3458 11.6657 14.1078 11.6897 13.8524C11.7137 13.5969 11.6442 13.3415 11.4941 13.1335L10.4095 11.6295C10.2801 11.45 10.0977 11.3156 9.88802 11.2451C9.6783 11.1746 9.45177 11.1715 9.24022 11.2363L7.53288 11.7591C6.54152 12.054 5.64167 11.2567 4.67573 9.58322C4.025 8.4563 3.72166 7.58356 3.79707 6.90486C3.83689 6.55238 4.00042 6.22701 4.2597 5.98468L5.52559 4.80437C5.68745 4.65356 5.79802 4.45585 5.84178 4.239C5.88555 4.02214 5.86031 3.79703 5.76962 3.59525L5.00534 1.89553C4.89987 1.66117 4.71278 1.47316 4.47894 1.36653C4.2451 1.2599 3.98047 1.24193 3.73437 1.31597L2.7447 1.61422Z" fill="#E31E27"/>
</svg>
