<svg width="156" height="340" viewBox="0 0 156 340" fill="none" xmlns="http://www.w3.org/2000/svg">
<g opacity="0.2">
<path d="M18.7272 89.1886C19.7553 82.3597 25.4098 77.2635 31.9317 77.2635C31.9639 77.2635 32.0281 77.2635 32.0602 77.2635C72.6056 77.7052 111.705 92.9938 142.773 120.377C143.737 108.35 146.982 96.6291 152.347 85.8931C159.672 71.25 170.692 59.0191 184.153 50.5254C189.583 47.094 196.362 48.0452 200.603 52.8357C220.779 75.5648 231.638 105.259 231.156 136.447C230.707 166.481 219.783 194.748 200.314 216.458C202.145 223.864 203.527 231.407 204.458 239.085C204.844 242.245 202.755 245.133 199.735 245.574C199.511 245.608 199.254 245.608 199.029 245.608C196.33 245.608 193.985 243.502 193.631 240.58C192.635 232.596 191.157 224.782 189.165 217.205C188.941 216.696 188.812 216.186 188.748 215.642C169.053 142.631 105.376 89.6303 31.8675 88.8149C31.8675 88.8149 31.8675 88.8149 31.8353 88.8149C30.6787 88.8149 29.5864 89.8002 29.3936 90.9893C25.3455 117.999 25.217 145.383 29.0081 172.427C29.0724 172.63 29.1366 172.834 29.1687 173.038C36.7188 207.319 57.7946 236.605 87.0631 253.354C112.862 268.167 142.901 272.04 171.077 264.532C161.568 257.907 152.443 250.636 143.737 242.72C120.765 221.826 101.456 197.126 86.3563 169.369C84.8463 166.617 85.7459 163.084 88.3804 161.487C90.9827 159.89 94.324 160.841 95.834 163.627C117.874 203.887 149.391 237.522 186.852 261.237C187.013 261.304 187.141 261.406 187.302 261.508C199.318 269.085 211.912 275.608 225.02 281.044C227.815 282.199 229.229 285.562 228.104 288.518C227.269 290.795 225.213 292.188 223.028 292.188C222.353 292.188 221.679 292.052 221.036 291.78C208.057 286.412 195.591 280.025 183.639 272.652C170.338 277.409 156.524 279.787 142.741 279.787C121.729 279.787 100.814 274.317 81.9869 263.479C50.3089 245.336 27.3696 213.74 18.9199 176.741C18.7272 176.266 18.5665 175.756 18.5023 175.213C14.3578 146.674 14.4542 117.727 18.7272 89.1886ZM176.314 159.72C176.379 153.537 176.636 147.795 177.085 142.291C178.081 130.536 179.977 118.169 182.868 104.409C183.511 101.284 186.435 99.347 189.39 100.027C192.346 100.706 194.177 103.798 193.535 106.923C190.74 120.174 188.908 132.065 187.977 143.31C187.077 154.08 186.981 165.937 187.72 180.513C191.189 187.919 194.209 195.563 196.715 203.446C229.614 161.928 228.49 101.012 192.699 60.7178C191.993 59.9024 190.772 59.8005 189.776 60.412C166.355 75.1571 152.572 101.861 153.439 130.536C162.049 139.471 169.696 149.256 176.314 159.72Z" fill="#ECDCBF"/>
</g>
</svg>
