<svg width="280" height="44" viewBox="0 0 280 44" fill="none" xmlns="http://www.w3.org/2000/svg">
<rect width="280" height="38" rx="19" fill="#E31E27"/>
<path d="M22.5369 30.15C22.5369 29.81 22.6389 29.5607 22.8429 29.402H28.7929V9.138L23.7269 12.334C23.2282 12.674 22.8316 12.844 22.5369 12.844C21.9929 12.844 21.7209 12.504 21.7209 11.824L21.7549 11.518L29.0989 6.792C29.7789 6.33867 30.3909 6.112 30.9349 6.112C31.4789 6.112 31.8302 6.47466 31.9889 7.2V29.368H36.5449C36.9302 29.368 37.2249 29.47 37.4289 29.674C37.6556 29.8553 37.7689 30.1047 37.7689 30.422C37.7689 30.7393 37.6669 30.9773 37.4629 31.136H23.7609C22.9449 31.136 22.5369 30.8073 22.5369 30.15ZM52.5448 31.442C49.3035 31.442 46.6968 30.32 44.7248 28.076C42.7528 25.8093 41.7668 22.8287 41.7668 19.134C41.7668 15.4393 42.7642 12.4247 44.7588 10.09C46.7762 7.75533 49.3828 6.588 52.5788 6.588C55.7975 6.588 58.4042 7.75533 60.3988 10.09C62.3935 12.402 63.3908 15.3033 63.3908 18.794C63.3908 22.6927 62.3935 25.7753 60.3988 28.042C58.4268 30.3087 55.8088 31.442 52.5448 31.442ZM46.9008 26.988C48.2382 29.0507 50.1308 30.082 52.5788 30.082C55.0268 30.082 56.9195 29.062 58.2568 27.022C59.5942 24.9593 60.2628 22.33 60.2628 19.134C60.2628 15.938 59.5375 13.3313 58.0868 11.314C56.6588 9.29667 54.8115 8.288 52.5448 8.288C50.2782 8.288 48.4308 9.29667 47.0028 11.314C45.5975 13.3313 44.8948 15.938 44.8948 19.134C44.8948 22.3073 45.5635 24.9253 46.9008 26.988ZM81.9628 31.442C78.7215 31.442 76.1148 30.32 74.1428 28.076C72.1708 25.8093 71.1848 22.8287 71.1848 19.134C71.1848 15.4393 72.1821 12.4247 74.1768 10.09C76.1941 7.75533 78.8008 6.588 81.9968 6.588C85.2155 6.588 87.8221 7.75533 89.8168 10.09C91.8115 12.402 92.8088 15.3033 92.8088 18.794C92.8088 22.6927 91.8115 25.7753 89.8168 28.042C87.8448 30.3087 85.2268 31.442 81.9628 31.442ZM76.3188 26.988C77.6561 29.0507 79.5488 30.082 81.9968 30.082C84.4448 30.082 86.3375 29.062 87.6748 27.022C89.0121 24.9593 89.6808 22.33 89.6808 19.134C89.6808 15.938 88.9555 13.3313 87.5048 11.314C86.0768 9.29667 84.2295 8.288 81.9628 8.288C79.6961 8.288 77.8488 9.29667 76.4208 11.314C75.0155 13.3313 74.3128 15.938 74.3128 19.134C74.3128 22.3073 74.9815 24.9253 76.3188 26.988ZM118.929 3.494C119.178 3.494 119.382 3.57333 119.541 3.732C119.699 3.868 119.824 4.08333 119.915 4.378L107.947 29.538C107.607 30.2633 107.255 30.762 106.893 31.034C106.53 31.3287 106.156 31.476 105.771 31.476C105.136 31.476 104.773 31.272 104.683 30.864L104.615 30.66L116.719 5.16C117.24 4.04933 117.977 3.494 118.929 3.494ZM103.833 16.142C102.155 16.142 100.807 15.5753 99.7868 14.442C98.7668 13.286 98.2568 11.7673 98.2568 9.886C98.2568 8.00466 98.7668 6.47466 99.7868 5.296C100.829 4.11733 102.178 3.528 103.833 3.528C105.487 3.528 106.825 4.11733 107.845 5.296C108.887 6.47466 109.409 8.00466 109.409 9.886C109.409 11.7673 108.899 13.286 107.879 14.442C106.859 15.5753 105.51 16.142 103.833 16.142ZM101.691 13.048C102.189 13.864 102.903 14.272 103.833 14.272C104.762 14.272 105.476 13.864 105.975 13.048C106.473 12.232 106.723 11.1893 106.723 9.92C106.723 8.628 106.451 7.58533 105.907 6.792C105.363 5.976 104.66 5.568 103.799 5.568C102.96 5.568 102.269 5.976 101.725 6.792C101.203 7.58533 100.943 8.61667 100.943 9.886C100.943 11.1553 101.192 12.2093 101.691 13.048ZM120.051 31.374C118.373 31.374 117.025 30.8073 116.005 29.674C114.985 28.518 114.475 26.9993 114.475 25.118C114.475 23.2367 114.985 21.7067 116.005 20.528C117.047 19.3493 118.396 18.76 120.051 18.76C121.705 18.76 123.043 19.3493 124.063 20.528C125.105 21.7067 125.627 23.2367 125.627 25.118C125.627 26.9993 125.117 28.518 124.097 29.674C123.077 30.8073 121.728 31.374 120.051 31.374ZM117.909 28.28C118.407 29.096 119.121 29.504 120.051 29.504C120.98 29.504 121.694 29.096 122.193 28.28C122.691 27.464 122.941 26.4213 122.941 25.152C122.941 23.86 122.669 22.8173 122.125 22.024C121.581 21.208 120.878 20.8 120.017 20.8C119.178 20.8 118.487 21.208 117.943 22.024C117.421 22.8173 117.161 23.8487 117.161 25.118C117.161 26.3873 117.41 27.4413 117.909 28.28ZM152.93 8.662C153.338 8.662 153.667 8.78667 153.916 9.036C154.165 9.26267 154.29 9.512 154.29 9.784C154.29 10.056 154.222 10.2147 154.086 10.26C151.819 10.26 150.063 11.11 148.816 12.81C147.569 14.51 146.946 16.9353 146.946 20.086C146.946 23.214 147.626 25.866 148.986 28.042C150.346 30.1953 152.239 31.272 154.664 31.272C157.089 31.272 159.016 30.1273 160.444 27.838C161.895 25.5487 162.62 22.67 162.62 19.202C162.62 15.7113 161.77 12.8213 160.07 10.532C158.393 8.22 156.194 7.064 153.474 7.064C150.754 7.064 148.431 7.846 146.504 9.41C144.6 10.9513 143.603 12.7987 143.512 14.952C143.421 15.1333 143.206 15.224 142.866 15.224C142.277 15.1787 141.982 14.7933 141.982 14.068C141.982 13.3427 142.129 12.606 142.424 11.858C142.719 11.0873 143.195 10.3167 143.852 9.546C144.509 8.77533 145.28 8.084 146.164 7.472C147.048 6.83733 148.147 6.32733 149.462 5.942C150.777 5.55667 152.193 5.364 153.712 5.364C157.361 5.364 160.274 6.67867 162.45 9.308C164.649 11.9147 165.748 15.224 165.748 19.236C165.748 23.248 164.739 26.4893 162.722 28.96C160.727 31.408 158.041 32.632 154.664 32.632C151.309 32.632 148.657 31.4647 146.708 29.13C144.781 26.7953 143.818 23.6447 143.818 19.678C143.818 17.8193 144.113 16.1533 144.702 14.68C145.314 13.2067 146.096 12.0507 147.048 11.212C148.975 9.512 150.935 8.662 152.93 8.662ZM171.748 25.22V30.626C171.522 30.9433 171.125 31.102 170.558 31.102C169.992 31.102 169.538 30.932 169.198 30.592C168.858 30.2293 168.688 29.708 168.688 29.028V16.108C168.915 15.7907 169.312 15.632 169.878 15.632C170.445 15.632 170.898 15.8133 171.238 16.176C171.578 16.516 171.748 17.026 171.748 17.706V20.29C172.882 17.4793 174.446 16.074 176.44 16.074C177.868 16.074 178.911 16.4593 179.568 17.23C180.226 17.978 180.554 18.8733 180.554 19.916C180.554 20.4827 180.384 20.936 180.044 21.276C179.704 21.616 179.376 21.786 179.058 21.786C178.469 21.786 178.084 21.65 177.902 21.378C178.038 21.038 178.106 20.5507 178.106 19.916C178.106 19.2813 177.891 18.7033 177.46 18.182C177.03 17.6607 176.508 17.4 175.896 17.4C174.831 17.4 173.868 18.3747 173.006 20.324C172.168 22.2507 171.748 23.8827 171.748 25.22ZM192.001 16.618C192.296 15.9607 192.76 15.632 193.395 15.632C194.052 15.632 194.54 15.7907 194.857 16.108V33.38C195.129 33.3573 195.56 33.346 196.149 33.346C196.738 33.346 197.033 33.5953 197.033 34.094L196.829 34.604C195.968 34.604 195.31 34.6153 194.857 34.638V36.406C194.834 38.7407 194.29 40.5653 193.225 41.88C192.182 43.2173 190.788 43.886 189.043 43.886C188 43.886 187.071 43.5687 186.255 42.934C185.462 42.322 185.065 41.3473 185.065 40.01C185.065 38.2873 185.677 36.916 186.901 35.896C188.125 34.876 189.757 34.162 191.797 33.754V28.756C190.845 30.32 189.53 31.102 187.853 31.102C183.886 31.102 181.903 28.5067 181.903 23.316C181.903 20.6867 182.515 18.7487 183.739 17.502C184.986 16.2553 186.629 15.632 188.669 15.632C190.233 15.632 191.344 15.9607 192.001 16.618ZM191.797 23.894V21.48C191.797 19.8707 191.525 18.7147 190.981 18.012C190.437 17.3093 189.802 16.958 189.077 16.958C188.374 16.958 187.819 17.026 187.411 17.162C187.003 17.298 186.606 17.5813 186.221 18.012C185.496 18.828 185.133 20.596 185.133 23.316C185.133 25.1067 185.292 26.5007 185.609 27.498C185.926 28.4953 186.289 29.13 186.697 29.402C187.105 29.6513 187.672 29.776 188.397 29.776C189.145 29.776 189.893 29.3113 190.641 28.382C191.412 27.43 191.797 25.934 191.797 23.894ZM191.797 36.338V35.046C188.465 35.794 186.799 37.4827 186.799 40.112C186.799 40.9053 187.014 41.506 187.445 41.914C187.876 42.3447 188.386 42.56 188.975 42.56C189.927 42.56 190.63 42.118 191.083 41.234C191.559 40.35 191.797 38.718 191.797 36.338ZM208.17 16.618C208.465 15.9607 208.93 15.632 209.564 15.632C210.222 15.632 210.709 15.7907 211.026 16.108V25.866C211.026 27.158 211.23 28.1327 211.638 28.79C212.046 29.4473 212.602 29.776 213.304 29.776C215.435 29.776 216.5 27.566 216.5 23.146C216.523 23.01 216.693 22.942 217.01 22.942C217.418 22.942 217.622 23.5427 217.622 24.744C217.622 26.6707 217.203 28.212 216.364 29.368C215.548 30.524 214.392 31.102 212.896 31.102C210.607 31.102 209.088 30.0933 208.34 28.076C207.91 29.0053 207.32 29.742 206.572 30.286C205.824 30.83 204.974 31.102 204.022 31.102C200.056 31.102 198.072 28.5067 198.072 23.316C198.072 20.6867 198.684 18.7487 199.908 17.502C201.155 16.2553 202.798 15.632 204.838 15.632C206.402 15.632 207.513 15.9607 208.17 16.618ZM201.778 27.498C202.096 28.4953 202.458 29.13 202.866 29.402C203.274 29.6513 203.818 29.776 204.498 29.776C205.178 29.776 205.915 29.3567 206.708 28.518C207.524 27.6567 207.932 26.546 207.932 25.186V20.528C207.932 19.4627 207.649 18.6013 207.082 17.944C206.538 17.2867 205.915 16.958 205.212 16.958C204.532 16.958 203.988 17.026 203.58 17.162C203.172 17.298 202.787 17.5813 202.424 18.012C201.676 18.828 201.302 20.596 201.302 23.316C201.302 25.1067 201.461 26.5007 201.778 27.498ZM234.96 22.942C235.368 22.942 235.572 23.5427 235.572 24.744C235.572 26.6707 235.153 28.212 234.314 29.368C233.498 30.524 232.297 31.102 230.71 31.102C229.124 31.102 227.9 30.558 227.038 29.47C226.2 28.382 225.78 26.8407 225.78 24.846V20.868C225.78 18.1707 225.1 16.822 223.74 16.822C222.539 16.822 221.553 17.434 220.782 18.658C220.012 19.882 219.626 21.9333 219.626 24.812V30.626C219.4 30.9433 219.003 31.102 218.436 31.102C217.87 31.102 217.416 30.932 217.076 30.592C216.736 30.2293 216.566 29.708 216.566 29.028V16.108C216.793 15.7907 217.224 15.632 217.858 15.632C219.037 15.632 219.626 16.482 219.626 18.182C220.578 16.482 222.086 15.632 224.148 15.632C225.622 15.632 226.789 16.0967 227.65 17.026C228.534 17.9553 228.976 19.2927 228.976 21.038V25.866C228.976 27.158 229.18 28.1327 229.588 28.79C229.996 29.4473 230.597 29.776 231.39 29.776C232.206 29.776 232.92 29.2773 233.532 28.28C234.144 27.26 234.45 25.5487 234.45 23.146C234.473 23.01 234.643 22.942 234.96 22.942ZM234.767 12.3C234.382 11.9147 234.189 11.4387 234.189 10.872C234.189 10.3053 234.382 9.82933 234.767 9.444C235.153 9.036 235.629 8.832 236.195 8.832C236.762 8.832 237.238 9.036 237.623 9.444C238.031 9.82933 238.235 10.3053 238.235 10.872C238.235 11.4387 238.031 11.9147 237.623 12.3C237.238 12.6853 236.762 12.878 236.195 12.878C235.629 12.878 235.153 12.6853 234.767 12.3ZM234.631 17.706C234.631 17.026 234.801 16.516 235.141 16.176C235.481 15.8133 235.912 15.632 236.433 15.632C236.955 15.632 237.374 15.7907 237.691 16.108V25.866C237.691 27.158 237.941 28.1327 238.439 28.79C238.938 29.4473 239.618 29.776 240.479 29.776C241.341 29.776 242.145 29.2547 242.893 28.212C243.641 27.1693 244.015 25.4807 244.015 23.146C244.061 23.01 244.231 22.942 244.525 22.942C244.933 22.942 245.137 23.5427 245.137 24.744C245.137 26.4893 244.661 27.9853 243.709 29.232C242.757 30.4787 241.545 31.102 240.071 31.102C238.235 31.102 236.864 30.558 235.957 29.47C235.073 28.382 234.631 26.8407 234.631 24.846V17.706ZM258.338 24.03C258.814 24.03 259.052 24.3587 259.052 25.016C259.052 25.6733 258.916 26.3307 258.644 26.988C258.372 27.6453 257.975 28.2913 257.454 28.926C256.955 29.5607 256.241 30.082 255.312 30.49C254.405 30.898 253.374 31.102 252.218 31.102C249.679 31.102 247.684 30.4673 246.234 29.198C244.806 27.906 244.092 26.0247 244.092 23.554C244.092 21.0607 244.726 19.1227 245.996 17.74C247.265 16.3347 248.886 15.632 250.858 15.632C252.286 15.632 253.328 16.0173 253.986 16.788C254.643 17.536 254.972 18.4313 254.972 19.474C254.972 20.0407 254.802 20.494 254.462 20.834C254.122 21.174 253.793 21.344 253.476 21.344C252.886 21.344 252.501 21.208 252.32 20.936C252.456 20.596 252.524 20.1087 252.524 19.474C252.524 18.8393 252.308 18.2613 251.878 17.74C251.447 17.2187 250.926 16.958 250.314 16.958C249.248 16.958 248.478 17.4793 248.002 18.522C247.548 19.5647 247.322 21.208 247.322 23.452C247.322 25.6733 247.752 27.2827 248.614 28.28C249.498 29.2773 250.722 29.776 252.286 29.776C253.85 29.776 255.164 29.3 256.23 28.348C257.295 27.3733 257.828 26.002 257.828 24.234C257.85 24.098 258.02 24.03 258.338 24.03Z" fill="#F8F2DE"/>
</svg>
